<?xml version="1.0" encoding="utf-8" ?>
<svg xmlns="http://www.w3.org/2000/svg" xmlns:xlink="http://www.w3.org/1999/xlink" width="1440" height="1080">
	<clipPath id="cl_1a">
		<rect width="1440" height="1080"/>
	</clipPath>
	<g clip-path="url(#cl_1a)">
		<path fill="#4A9931" transform="matrix(-1.42658 -0.463526 0.463526 -1.42658 988.5 566.55)" d="M106.656 51.5752L100.855 36.4455L154.052 -58.4058L166.178 -49.4056L106.656 51.5752Z" fill-rule="evenodd"/>
		<path fill="#4A9931" transform="matrix(-1.5 0 0 -1.5 1013.25 540)" d="M88.8335 70.199L89.2828 -117.923L104.154 -117.942L104.166 27.877L102.83 63.6166C103.258 64.4188 88.4866 70.187 88.8335 70.199Z" fill-rule="evenodd"/>
		<path fill="#5499A6" transform="matrix(1.42658 -0.463526 -0.463526 -1.42658 744.75 403.5)" d="M0.665595 57.3157L-4.53271 36.3167L45.1383 -50.3012L62.4804 -50.3064L8.66016 42.877L0.665595 57.3157Z" fill-rule="evenodd"/>
		<path fill="#5499A6" transform="matrix(1.42658 0.463526 0.463526 -1.42658 695.7 403.05)" d="M-0.785856 56.8999L-8.66016 42.877L-62.5299 -50.5155L-45.4918 -50.5351L4.40957 35.8988L-0.785856 56.8999Z" fill-rule="evenodd"/>
		<path fill="#E4344C" transform="matrix(1.42658 -0.463526 -0.463526 -1.42658 808.312 453.6)" d="M-153.966 61.0418L-159.687 41.929L-103.373 -55.8107L-91.2482 -46.8109L-153.966 61.0418Z" fill-rule="evenodd"/>
		<path fill="#E4344C" transform="matrix(1.5 0 0 -1.5 810.281 540)" d="M-166.773 67.886L-166.63 -117.951L-151.987 -118.043L-151.712 31.5561L-152.346 53.0706L-166.773 67.886Z" fill-rule="evenodd"/>
		<path fill="#ABABAB" transform="matrix(-1.37075 -0.609123 -0.609123 1.37075 171.771 578.587)" d="M-193.334 74.623L-208.334 74.623L-208.487 -43.0496L-193.666 -50.5415L-193.334 74.623Z" fill-rule="evenodd"/>
		<path fill="#ABABAB" transform="matrix(-1.37075 -0.609123 -0.609123 1.37075 171.771 578.587)" d="M-208.334 199.623L-208.334 74.623L-193.334 74.623L-193.334 199.623L-208.334 199.623Z" fill-rule="evenodd"/>
	</g>
</svg>
