<?xml version="1.0" encoding="utf-8" ?>
<svg xmlns="http://www.w3.org/2000/svg" xmlns:xlink="http://www.w3.org/1999/xlink" width="1440" height="1080">
	<clipPath id="cl_1b">
		<rect width="1440" height="1080"/>
	</clipPath>
	<g clip-path="url(#cl_1b)">
		<path fill="#4A9931" transform="matrix(-1.37032 -0.610105 0.610105 -1.37032 980.25 575.4)" d="M109.366 47.6168L102.51 32.1612L155.621 -61.0821L166.015 -49.0818L109.366 47.6168Z" fill-rule="evenodd"/>
		<path fill="#4A9931" transform="matrix(-1.5 0 0 -1.5 1013.25 540)" d="M88.8038 71.4532L89.3218 -93.19L104.15 -93.215L104.166 27.877L103.498 63.6572C103.711 64.0583 88.6303 71.4472 88.8038 71.4532Z" fill-rule="evenodd"/>
		<path fill="#5499A6" transform="matrix(1.37032 -0.610105 -0.610105 -1.37032 753 408)" d="M0.88747 57.1286L-6.04361 39.1299L45.1245 -50.276L62.4739 -50.2828L8.66016 42.877L0.88747 57.1286Z" fill-rule="evenodd"/>
		<path fill="#5499A6" transform="matrix(1.37032 0.610105 0.610105 -1.37032 687.6 407.4)" d="M-1.0478 56.5742L-8.66016 42.877L-62.5398 -50.5617L-45.5959 -50.5878L5.87944 38.5727L-1.0478 56.5742Z" fill-rule="evenodd"/>
		<path fill="#E4344C" transform="matrix(1.37032 -0.610105 -0.610105 -1.37032 807.656 424.8)" d="M-153.965 61.6568L-160.596 45.5762L-102.336 -57.622L-91.9422 -45.6223L-153.965 61.6568Z" fill-rule="evenodd"/>
		<path fill="#E4344C" transform="matrix(1.5 0 0 -1.5 810.281 540)" d="M-166.696 70.3578L-166.618 -93.2276L-152.094 -93.349L-151.689 29.7165L-151.993 58.6294L-166.696 70.3578Z" fill-rule="evenodd"/>
		<path fill="#ABABAB" transform="matrix(-1.44874 0.388784 0.388784 1.44874 244.91 783.656)" d="M-193.334 74.623L-208.334 74.623L-208.493 -42.731L-193.68 -50.5487L-193.334 74.623Z" fill-rule="evenodd"/>
		<path fill="#ABABAB" transform="matrix(-1.44874 0.388784 0.388784 1.44874 244.91 783.656)" d="M-208.334 199.623L-208.334 74.623L-193.334 74.623L-193.334 199.623L-208.334 199.623Z" fill-rule="evenodd"/>
	</g>
</svg>
