<?xml version="1.0" encoding="utf-8" ?>
<svg xmlns="http://www.w3.org/2000/svg" xmlns:xlink="http://www.w3.org/1999/xlink" width="1440" height="1080">
	<clipPath id="cl_19">
		<rect width="1440" height="1080"/>
	</clipPath>
	<g clip-path="url(#cl_19)">
		<path fill="#4A9931" transform="matrix(-1.46722 -0.311868 0.311868 -1.46722 996.75 557.7)" d="M105.737 53.7883L101.619 33.9164L152.484 -55.7295L166.341 -49.7294L105.737 53.7883Z" fill-rule="evenodd"/>
		<path fill="#4A9931" transform="matrix(-1.5 0 0 -1.5 1013.25 540)" d="M88.9606 65.521L89.2439 -142.657L104.158 -142.669L104.166 27.877L102.953 63.0895C103.166 63.4906 88.7871 65.515 88.9606 65.521Z" fill-rule="evenodd"/>
		<path fill="#5499A6" transform="matrix(1.46722 -0.311868 -0.311868 -1.46722 736.5 399)" d="M0.44372 57.5028L-3.02182 33.5034L45.1521 -50.3265L62.4869 -50.3299L8.66016 42.877L0.44372 57.5028Z" fill-rule="evenodd"/>
		<path fill="#5499A6" transform="matrix(1.46722 0.311868 0.311868 -1.46722 703.8 398.7)" d="M-0.523914 57.2256L-8.66016 42.877L-62.5199 -50.4693L-45.3878 -50.4824L2.93971 33.2248L-0.523914 57.2256Z" fill-rule="evenodd"/>
		<path fill="#E4344C" transform="matrix(1.46722 -0.311868 -0.311868 -1.46722 808.968 482.4)" d="M-153.2 59.9868L-157.013 37.245L-104.411 -53.9995L-90.5541 -47.9996L-153.2 59.9868Z" fill-rule="evenodd"/>
		<path fill="#E4344C" transform="matrix(1.5 0 0 -1.5 810.281 540)" d="M-166.85 65.4141L-166.642 -142.675L-151.88 -142.736L-151.736 33.3956L-162.665 64.982L-166.85 65.4141Z" fill-rule="evenodd"/>
		<path fill="#ABABAB" transform="matrix(-0.818213 -1.25719 -1.25719 0.818213 222.547 420.05)" d="M-193.334 74.623L-208.334 74.623L-208.48 -43.3682L-193.651 -50.5344L-193.334 74.623Z" fill-rule="evenodd"/>
		<path fill="#ABABAB" transform="matrix(-0.818213 -1.25719 -1.25719 0.818213 222.547 420.05)" d="M-208.334 199.623L-208.334 74.623L-193.334 74.623L-193.334 199.623L-208.334 199.623Z" fill-rule="evenodd"/>
	</g>
</svg>
