<?xml version="1.0" encoding="utf-8" ?>
<svg xmlns="http://www.w3.org/2000/svg" xmlns:xlink="http://www.w3.org/1999/xlink" width="1440" height="1080">
	<clipPath id="cl_18">
		<rect width="1440" height="1080"/>
	</clipPath>
	<g clip-path="url(#cl_18)">
		<path fill="#4A9931" transform="matrix(-1.49178 -0.156793 0.156793 -1.49178 1005 548.85)" d="M104.166 57.877L102.295 32.7819L150.915 -53.0532L166.503 -50.0532L104.166 57.877Z" fill-rule="evenodd"/>
		<path fill="#4A9931" transform="matrix(-1.5 0 0 -1.5 1013.25 540)" d="M89.0876 60.843L89.205 -167.39L104.162 -167.396L104.166 27.877L103.075 62.5625L89.0876 60.843Z" fill-rule="evenodd"/>
		<path fill="#5499A6" transform="matrix(1.49178 -0.156793 -0.156793 -1.49178 728.25 394.5)" d="M0.221845 57.6899L-1.51093 30.6902L45.1659 -50.3517L62.4935 -50.3534L8.66016 42.877L0.221845 57.6899Z" fill-rule="evenodd"/>
		<path fill="#5499A6" transform="matrix(1.49178 0.156793 0.156793 -1.49178 711.9 394.35)" d="M-0.261972 57.5513L-8.66016 42.877L-62.51 -50.4231L-45.2837 -50.4296L1.46984 30.5509L-0.261972 57.5513Z" fill-rule="evenodd"/>
		<path fill="#E4344C" transform="matrix(1.49178 -0.156793 -0.156793 -1.49178 809.625 511.2)" d="M-152.433 58.9319L-154.34 32.561L-105.449 -52.1882L-89.8601 -49.1883L-152.433 58.9319Z" fill-rule="evenodd"/>
		<path fill="#E4344C" transform="matrix(1.5 0 0 -1.5 810.281 540)" d="M-166.926 62.9423L-166.654 -167.399L-151.773 -167.43L-151.666 27.877L-157.184 61.2231L-166.926 62.9423Z" fill-rule="evenodd"/>
		<path fill="#ABABAB" transform="matrix(-0.158625 -1.49159 -1.49159 0.158625 326.621 339.24)" d="M-193.334 74.623L-208.334 74.623L-208.473 -43.6868L-193.637 -50.5272L-193.334 74.623Z" fill-rule="evenodd"/>
		<path fill="#ABABAB" transform="matrix(-0.158625 -1.49159 -1.49159 0.158625 326.621 339.24)" d="M-208.334 199.623L-208.334 74.623L-193.334 74.623L-193.334 199.623L-208.334 199.623Z" fill-rule="evenodd"/>
	</g>
</svg>
